<?xml version="1.0" encoding="UTF-8" standalone="no"?><!DOCTYPE svg PUBLIC "-//W3C//DTD SVG 1.1//EN" "http://www.w3.org/Graphics/SVG/1.1/DTD/svg11.dtd"><svg width="100%" height="100%" viewBox="0 0 226 37" version="1.1" xmlns="http://www.w3.org/2000/svg" xmlns:xlink="http://www.w3.org/1999/xlink" xml:space="preserve" xmlns:serif="http://www.serif.com/" style="fill-rule:evenodd;clip-rule:evenodd;stroke-linejoin:round;stroke-miterlimit:1.41421;"><path d="M225.226,9.044c0.176,0.153 0.277,0.375 0.277,0.609c0,4.876 0,9.76 0,14.636c0.002,0.385 -0.122,0.76 -0.354,1.068c-0.205,0.256 -0.468,0.459 -0.808,0.594c-8.523,3.386 -17.047,6.772 -25.571,10.158c-0.399,0.157 -0.665,0.165 -0.881,-0.007c-0.189,-0.151 -0.299,-0.38 -0.299,-0.621c0,-4.881 0,-9.762 0,-14.635c0,-0.451 0.175,-0.884 0.489,-1.207c0.233,-0.226 0.519,-0.405 0.864,-0.541c3.458,-1.353 6.917,-2.732 10.357,-4.112c5.02,-1.988 10.022,-3.985 15.032,-5.973c0.406,-0.157 0.682,-0.153 0.894,0.031Zm-7.492,-8.355c0.135,0.003 0.251,0.046 0.355,0.13c0.188,0.151 0.298,0.38 0.298,0.621c0,2.422 0,4.843 0,7.273c-7.208,2.878 -14.406,5.774 -21.614,8.651c-0.826,0.327 -1.225,0.926 -1.225,1.816c0,2.26 0,4.52 0,6.799c0,0.172 -0.055,0.254 -0.209,0.317c-1.216,0.472 -2.433,0.963 -3.64,1.453c-0.018,0.009 -0.027,0.018 -0.046,0.018c-0.375,0.145 -0.637,0.141 -0.848,-0.036c-0.181,-0.153 -0.286,-0.378 -0.286,-0.615c0,-4.713 0,-9.41 0,-14.115c0,-0.952 0.6,-1.801 1.497,-2.118c0,0 0,0 0.001,0c0.889,-0.318 1.751,-0.699 2.632,-1.044c2.825,-1.127 5.647,-2.256 8.467,-3.386l5.641,-2.26c2.821,-1.13 5.642,-2.259 8.468,-3.386c0.193,-0.079 0.355,-0.119 0.496,-0.118l0.013,0Z" style="fill:#c2b8a3;"/><path d="M18.905,28.665l0,-11.565c0,-4.725 -2.295,-7.29 -7.515,-7.29c-2.385,0 -4.635,0.54 -7.155,1.53l0.585,1.665c2.295,-0.9 4.41,-1.395 6.39,-1.395c4.095,0 5.625,1.8 5.625,5.625l0,2.475l-4.815,0c-5.805,0 -9.54,2.655 -9.54,7.515c0,4.185 2.7,7.02 7.2,7.02c3.24,0 5.715,-1.395 7.425,-4.14c0.225,2.565 1.35,3.645 3.285,4.14l0.495,-1.485c-1.305,-0.495 -1.98,-1.305 -1.98,-4.095Zm-8.955,3.825c-3.285,0 -5.265,-1.935 -5.265,-5.31c0,-3.96 2.835,-5.85 7.65,-5.85l4.5,0l0,6.705c-1.485,2.835 -3.69,4.455 -6.885,4.455Z" style="fill-rule:nonzero;"/><path d="M36.417,9.81c-3.51,0 -6.165,1.89 -8.145,4.635l-0.18,-4.185l-1.8,0l0,23.49l2.07,0l0,-17.145c2.025,-2.97 4.32,-5.085 7.74,-5.085c3.06,0 4.68,1.755 4.68,5.76l0,16.47l2.07,0l0,-16.74c0,-4.59 -2.16,-7.2 -6.435,-7.2Z" style="fill-rule:nonzero;"/><path d="M65.069,0.405l0,12.69c-1.305,-1.665 -3.285,-3.285 -6.705,-3.285c-5.76,0 -9.18,5.04 -9.18,12.285c0,7.515 3.375,12.15 8.73,12.15c3.645,0 5.895,-1.935 7.2,-4.185l0.225,3.69l1.8,0l0,-33.075l-2.07,-0.27Zm-6.885,32.04c-4.185,0 -6.795,-3.69 -6.84,-10.35c-0.045,-6.75 2.97,-10.53 7.29,-10.53c3.06,0 5.04,1.665 6.435,3.735l0,12.465c-1.62,2.97 -3.555,4.68 -6.885,4.68Z" style="fill-rule:nonzero;"/><path d="M85.768,9.495c-6.435,0 -10.35,5.04 -10.35,12.6c0,7.65 3.96,12.195 10.35,12.195c2.745,0 5.13,-0.9 7.245,-2.61l-1.89,-2.7c-1.8,1.17 -3.195,1.8 -5.175,1.8c-3.735,0 -6.075,-2.565 -6.075,-8.775c0,-6.165 2.34,-9.09 6.075,-9.09c1.98,0 3.465,0.585 5.085,1.755l1.98,-2.61c-2.205,-1.845 -4.455,-2.565 -7.245,-2.565Z" style="fill-rule:nonzero;"/><path d="M114.718,28.215l0,-10.845c0,-4.95 -2.61,-7.875 -8.325,-7.875c-2.655,0 -5.265,0.54 -8.19,1.62l1.035,3.015c2.43,-0.81 4.635,-1.26 6.39,-1.26c3.285,0 4.95,1.26 4.95,4.68l0,1.755l-3.645,0c-6.615,0 -10.44,2.745 -10.44,7.83c0,4.23 2.835,7.155 7.56,7.155c2.88,0 5.4,-1.08 7.065,-3.555c0.72,2.34 2.25,3.285 4.635,3.555l0.945,-2.88c-1.215,-0.45 -1.98,-1.125 -1.98,-3.195Zm-9.72,2.97c-2.7,0 -4.095,-1.485 -4.095,-4.275c0,-3.24 2.205,-4.86 6.57,-4.86l3.105,0l0,5.445c-1.35,2.475 -3.15,3.69 -5.58,3.69Z" style="fill-rule:nonzero;"/><path d="M132.058,9.495c-2.88,0 -5.085,1.8 -6.345,5.355l-0.405,-4.815l-3.554,0l0,23.715l4.139,0l0,-13.545c0.99,-4.545 2.7,-6.66 5.67,-6.66c0.855,0 1.351,0.09 2.07,0.27l0.765,-4.05c-0.719,-0.18 -1.575,-0.27 -2.339,-0.27Z" style="fill-rule:nonzero;"/><path d="M152.392,0l0,12.42c-1.575,-1.665 -3.6,-2.925 -6.39,-2.925c-5.805,0 -9.315,5.265 -9.315,12.51c0,7.38 3.195,12.285 8.955,12.285c2.925,0 5.31,-1.44 6.84,-3.825l0.405,3.285l3.645,0l0,-33.255l-4.14,-0.495Zm-5.85,31.005c-3.42,0 -5.4,-2.835 -5.4,-9.09c0,-6.165 2.205,-9.135 5.76,-9.135c2.34,0 4.005,1.215 5.49,3.105l0,11.61c-1.575,2.205 -3.195,3.51 -5.85,3.51Z" style="fill-rule:nonzero;"/><path d="M170.541,9.589c-4.905,0 -8.55,2.745 -8.55,6.525c0,3.33 2.025,5.535 7.155,6.885c4.59,1.215 5.76,2.115 5.76,4.455c0,2.25 -1.98,3.6 -5.085,3.6c-2.565,0 -4.77,-0.855 -6.66,-2.295l-2.205,2.52c2.07,1.8 4.95,3.105 8.955,3.105c4.815,0 9.36,-2.25 9.36,-7.2c0,-4.14 -2.88,-6.12 -7.875,-7.38c-3.825,-0.99 -5.085,-1.89 -5.085,-3.825c0,-1.89 1.665,-3.105 4.365,-3.105c2.205,0 4.05,0.675 6.165,2.025l1.755,-2.61c-2.25,-1.71 -4.725,-2.7 -8.055,-2.7Z" style="fill-rule:nonzero;"/></svg>